<svg width="73" height="13" viewBox="0 0 73 13" fill="none" xmlns="http://www.w3.org/2000/svg">
<path d="M10.8912 8.08682C10.714 8.25855 10.6325 8.5069 10.6729 8.75046L11.2811 12.1166C11.3324 12.4019 11.212 12.6906 10.9733 12.8555C10.7393 13.0265 10.428 13.047 10.1728 12.9102L7.14261 11.3298C7.03725 11.2737 6.92026 11.2436 6.80053 11.2401H6.61512C6.55081 11.2497 6.48786 11.2702 6.43039 11.3017L3.39953 12.8897C3.2497 12.9649 3.08003 12.9916 2.91378 12.9649C2.50875 12.8883 2.2385 12.5024 2.30487 12.0953L2.91378 8.72925C2.95414 8.48364 2.87273 8.23392 2.69553 8.05946L0.225005 5.66488C0.0183874 5.46442 -0.0534499 5.16338 0.040965 4.89178C0.132643 4.62085 0.366628 4.42313 0.649188 4.37866L4.04949 3.88538C4.30811 3.85869 4.53525 3.70134 4.65156 3.46872L6.14989 0.396816C6.18546 0.3284 6.2313 0.265456 6.28672 0.212091L6.34829 0.1642C6.38045 0.128623 6.41739 0.0992041 6.45844 0.0752583L6.53302 0.0478917L6.64933 0H6.93736C7.19461 0.0266825 7.42106 0.18062 7.53943 0.410499L9.05759 3.46872C9.16706 3.69244 9.37983 3.84775 9.62545 3.88538L13.0258 4.37866C13.3131 4.41971 13.5532 4.61812 13.6483 4.89178C13.738 5.16612 13.6607 5.46715 13.4499 5.66488L10.8912 8.08682Z" fill="#FF9900"/>
<path d="M25.5767 8.08682C25.3995 8.25855 25.3181 8.5069 25.3585 8.75046L25.9667 12.1166C26.018 12.4019 25.8976 12.6906 25.6588 12.8555C25.4248 13.0265 25.1135 13.047 24.8583 12.9102L21.8282 11.3298C21.7228 11.2737 21.6058 11.2436 21.4861 11.2401H21.3007C21.2364 11.2497 21.1734 11.2702 21.1159 11.3017L18.0851 12.8897C17.9352 12.9649 17.7656 12.9916 17.5993 12.9649C17.1943 12.8883 16.9241 12.5024 16.9904 12.0953L17.5993 8.72925C17.6397 8.48364 17.5583 8.23392 17.3811 8.05946L14.9106 5.66488C14.7039 5.46442 14.6321 5.16338 14.7265 4.89178C14.8182 4.62085 15.0522 4.42313 15.3347 4.37866L18.735 3.88538C18.9937 3.85869 19.2208 3.70134 19.3371 3.46872L20.8354 0.396816C20.871 0.3284 20.9168 0.265456 20.9723 0.212091L21.0338 0.1642C21.066 0.128623 21.1029 0.0992041 21.144 0.0752583L21.2186 0.0478917L21.3349 0H21.6229C21.8802 0.0266825 22.1066 0.18062 22.225 0.410499L23.7431 3.46872C23.8526 3.69244 24.0654 3.84775 24.311 3.88538L27.7113 4.37866C27.9986 4.41971 28.2388 4.61812 28.3339 4.89178C28.4235 5.16612 28.3462 5.46715 28.1355 5.66488L25.5767 8.08682Z" fill="#FF9900"/>
<path d="M40.2613 8.08682C40.0841 8.25855 40.0027 8.5069 40.043 8.75046L40.6512 12.1166C40.7026 12.4019 40.5821 12.6906 40.3434 12.8555C40.1094 13.0265 39.7981 13.047 39.5429 12.9102L36.5127 11.3298C36.4074 11.2737 36.2904 11.2436 36.1706 11.2401H35.9852C35.9209 11.2497 35.858 11.2702 35.8005 11.3017L32.7697 12.8897C32.6198 12.9649 32.4501 12.9916 32.2839 12.9649C31.8789 12.8883 31.6086 12.5024 31.675 12.0953L32.2839 8.72925C32.3243 8.48364 32.2428 8.23392 32.0656 8.05946L29.5951 5.66488C29.3885 5.46442 29.3167 5.16338 29.4111 4.89178C29.5028 4.62085 29.7367 4.42313 30.0193 4.37866L33.4196 3.88538C33.6782 3.85869 33.9054 3.70134 34.0217 3.46872L35.52 0.396816C35.5556 0.3284 35.6014 0.265456 35.6568 0.212091L35.7184 0.1642C35.7506 0.128623 35.7875 0.0992041 35.8286 0.0752583L35.9031 0.0478917L36.0194 0H36.3075C36.5647 0.0266825 36.7912 0.18062 36.9095 0.410499L38.4277 3.46872C38.5372 3.69244 38.7499 3.84775 38.9956 3.88538L42.3959 4.37866C42.6832 4.41971 42.9234 4.61812 43.0185 4.89178C43.1081 5.16612 43.0308 5.46715 42.82 5.66488L40.2613 8.08682Z" fill="#FF9900"/>
<path d="M54.9458 8.08682C54.7686 8.25855 54.6872 8.5069 54.7276 8.75046L55.3358 12.1166C55.3871 12.4019 55.2667 12.6906 55.0279 12.8555C54.794 13.0265 54.4827 13.047 54.2275 12.9102L51.1973 11.3298C51.0919 11.2737 50.9749 11.2436 50.8552 11.2401H50.6698C50.6055 11.2497 50.5426 11.2702 50.4851 11.3017L47.4542 12.8897C47.3044 12.9649 47.1347 12.9916 46.9685 12.9649C46.5634 12.8883 46.2932 12.5024 46.3596 12.0953L46.9685 8.72925C47.0088 8.48364 46.9274 8.23392 46.7502 8.05946L44.2797 5.66488C44.0731 5.46442 44.0012 5.16338 44.0957 4.89178C44.1873 4.62085 44.4213 4.42313 44.7039 4.37866L48.1042 3.88538C48.3628 3.85869 48.5899 3.70134 48.7062 3.46872L50.2046 0.396816C50.2401 0.3284 50.286 0.265456 50.3414 0.212091L50.403 0.1642C50.4351 0.128623 50.4721 0.0992041 50.5131 0.0752583L50.5877 0.0478917L50.704 0H50.992C51.2493 0.0266825 51.4758 0.18062 51.5941 0.410499L53.1123 3.46872C53.2217 3.69244 53.4345 3.84775 53.6801 3.88538L57.0804 4.37866C57.3678 4.41971 57.6079 4.61812 57.703 4.89178C57.7927 5.16612 57.7153 5.46715 57.5046 5.66488L54.9458 8.08682Z" fill="#FF9900"/>
<path d="M69.2877 7.72369L69.2877 7.72367L69.2834 7.72777C68.9879 8.01418 68.8528 8.42748 68.9199 8.83221L68.9198 8.83222L68.9211 8.83937L69.5293 12.2051C69.5458 12.2968 69.5072 12.3903 69.4294 12.444L69.4293 12.4439L69.4184 12.4518C69.3409 12.5085 69.2363 12.5162 69.1493 12.4695L69.1493 12.4695L69.1442 12.4669L66.1157 10.8873C65.9405 10.7945 65.7484 10.7459 65.555 10.7403L65.5479 10.7401H65.5408H65.3554H65.3183L65.2817 10.7456C65.1637 10.7632 65.0456 10.8009 64.9352 10.8606L61.9124 12.4443C61.8586 12.4706 61.7988 12.4803 61.7403 12.4723C61.6066 12.4434 61.5176 12.3151 61.5381 12.179L62.146 8.81826L62.1461 8.81827L62.1474 8.81034C62.2141 8.4045 62.0796 7.99165 61.7866 7.70316L61.7866 7.70315L61.7838 7.70043L59.3134 5.30602C59.2458 5.24046 59.2231 5.14326 59.2535 5.05596L59.2548 5.05205C59.2868 4.9575 59.3677 4.88907 59.465 4.87293L62.8526 4.38149C63.2769 4.33377 63.6481 4.07408 63.839 3.69233L63.839 3.69234L63.8412 3.68791L65.336 0.623285C65.3442 0.608153 65.353 0.595479 65.3618 0.585124L65.3955 0.558876L65.4301 0.531976L65.4423 0.51846L65.4455 0.517283L65.4546 0.513933L65.4636 0.510231L65.4885 0.5H65.6451C65.7264 0.51432 65.7958 0.564937 65.8339 0.636961L67.3487 3.68847C67.349 3.68899 67.3492 3.68951 67.3495 3.69003C67.5317 4.06109 67.8842 4.31744 68.29 4.37961L68.29 4.37963L68.2939 4.3802L71.6942 4.87348L71.6953 4.87363C71.7954 4.88794 71.8798 4.95643 71.9147 5.05142C71.9417 5.13972 71.9164 5.23608 71.848 5.30025L71.8465 5.30175L69.2877 7.72369Z" stroke="#FF9900"/>
</svg>
